<svg xmlns="http://www.w3.org/2000/svg" viewBox="0 0 1440 320">
  <defs>
    <linearGradient id="wave" x1="0%" y1="0%" x2="100%" y2="0%">
      <stop offset="0%" style="stop-color:#A1A3D2;stop-opacity:1" />
      <stop offset="100%" style="stop-color:#B7AFEA;stop-opacity:1" />
    </linearGradient>
  </defs>
  <path fill="url(#wave)" fill-opacity="1" d="M0,288L48,272C96,256,192,224,288,224C384,224,480,256,576,240C672,224,768,160,864,138.7C960,117,1056,139,1152,149.3C1248,160,1344,160,1392,160L1440,160L1440,320L1392,320C1344,320,1248,320,1152,320C1056,320,960,320,864,320C768,320,672,320,576,320C480,320,384,320,288,320C192,320,96,320,48,320L0,320Z"></path>
</svg>