<svg xmlns="http://www.w3.org/2000/svg" viewBox="0 0 1440 320">
  <defs>
    <linearGradient id="wave" x1="0%" y1="0%" x2="100%" y2="0%">
      <stop offset="0%" style="stop-color:#9B91D2;stop-opacity:1" />
      <stop offset="100%" style="stop-color:#9DB8EB;stop-opacity:1" />
    </linearGradient>
  </defs>
  <path fill="url(#wave)" d="M0,64L34.3,64C68.6,64,137,64,206,85.3C274.3,107,343,149,411,138.7C480,128,549,64,617,42.7C685.7,21,754,43,823,85.3C891.4,128,960,192,1029,197.3C1097.1,203,1166,149,1234,138.7C1302.9,128,1371,160,1406,176L1440,192L1440,320L1405.7,320C1371.4,320,1303,320,1234,320C1165.7,320,1097,320,1029,320C960,320,891,320,823,320C754.3,320,686,320,617,320C548.6,320,480,320,411,320C342.9,320,274,320,206,320C137.1,320,69,320,34,320L0,320Z"></path>
</svg>